<?xml version="1.0" encoding="utf-8"?>
<!-- Generator: Adobe Illustrator 19.1.0, SVG Export Plug-In . SVG Version: 6.00 Build 0)  -->
<svg version="1.1" id="Layer_1" xmlns="http://www.w3.org/2000/svg" xmlns:xlink="http://www.w3.org/1999/xlink" x="0px" y="0px"
	 viewBox="0 0 219.8 220.3" style="enable-background:new 0 0 219.8 220.3;" xml:space="preserve">
<style type="text/css">
	.st0{fill:#429B46;}
	.st1{fill:none;stroke:#FFFFFF;stroke-width:8;stroke-linecap:round;stroke-linejoin:round;stroke-miterlimit:10;}
	.st2{fill:#424799;}
	.st3{fill:#FCEE22;}
	.st4{fill:#4751A3;}
</style>
<g>
	<path class="st0" d="M219.8,109.9c0,60.7-49.2,109.9-109.9,109.9c-28.3,0-54.1-10.7-73.5-28.2C14,171.4,0,142.3,0,109.9
		C0,49.2,49.2,0,109.9,0S219.8,49.2,219.8,109.9z"/>
	<g>
		<line class="st1" x1="113.8" y1="42.5" x2="113.8" y2="71.3"/>
		<polyline class="st1" points="113.8,71.3 179.1,71.3 179.1,148.5 48.5,148.5 48.5,71.3 92.1,71.3 		"/>
		<line class="st1" x1="92.1" y1="129" x2="135.4" y2="129"/>
		<rect x="155.5" y="129" class="st1" width="1" height="1"/>
		<rect x="155.5" y="109.9" class="st1" width="1" height="1"/>
		<rect x="155.5" y="90.8" class="st1" width="1" height="1"/>
		<rect x="134.7" y="109.9" class="st1" width="1" height="1"/>
		<rect x="113.8" y="109.9" class="st1" width="1" height="1"/>
		<rect x="92.9" y="109.9" class="st1" width="1" height="1"/>
		<rect x="72" y="109.9" class="st1" width="1" height="1"/>
		<rect x="134.7" y="90.8" class="st1" width="1" height="1"/>
		<rect x="113.8" y="90.8" class="st1" width="1" height="1"/>
		<rect x="92.9" y="90.8" class="st1" width="1" height="1"/>
		<rect x="72" y="90.8" class="st1" width="1" height="1"/>
		<rect x="72" y="129" class="st1" width="1" height="1"/>
	</g>
</g>
<path class="st2" d="M35.8,192c19.5,17.6,45.3,28.2,73.5,28.2c32.5,0,61.7-14.1,81.8-36.5H27.6C30.2,186.6,32.9,189.4,35.8,192z"/>
<path class="st3" d="M178.6,196.1H41.1c18.8,15.1,42.7,24.2,68.8,24.2C135.9,220.3,159.8,211.2,178.6,196.1z"/>
<path class="st4" d="M159.8,208.2H59.6c15,7.7,32.1,12.1,50.1,12.1C127.8,220.3,144.8,215.9,159.8,208.2z"/>
</svg>
