<?xml version="1.0" encoding="UTF-8" standalone="no"?>
<!-- Created with Inkscape (http://www.inkscape.org/) -->

<svg
   xmlns:dc="http://purl.org/dc/elements/1.1/"
   xmlns:cc="http://creativecommons.org/ns#"
   xmlns:rdf="http://www.w3.org/1999/02/22-rdf-syntax-ns#"
   xmlns:svg="http://www.w3.org/2000/svg"
   xmlns="http://www.w3.org/2000/svg"
   version="1.1"
   width="294"
   height="104"
   id="svg2985">
  <metadata
     id="metadata2991">
    <rdf:RDF>
      <cc:Work
         rdf:about="">
        <dc:format>image/svg+xml</dc:format>
        <dc:type
           rdf:resource="http://purl.org/dc/dcmitype/StillImage" />
        <dc:title></dc:title>
      </cc:Work>
    </rdf:RDF>
  </metadata>
  <defs
     id="defs2989" />
  <path
     d="M 51.78125,0.09375 C 23.183866,0.09375 0,23.277616 0,51.875 c 0,28.597384 23.183866,51.78125 51.78125,51.78125 28.597384,0 51.78125,-23.183866 51.78125,-51.78125 0,-28.597384 -23.183866,-51.78125 -51.78125,-51.78125 z M 52.0625,31.71875 61.65625,38.75 71.25,45.8125 67.53125,57.15625 63.78125,68.4375 51.875,68.40625 39.96875,68.34375 36.3125,57 32.71875,45.65625 l 9.65625,-7 9.6875,-6.9375 z"
     id="path4947"
     style="fill:#e9eaeb;fill-opacity:1;stroke:none" />
  <path
     d="m 46.03125,72 c -2.581167,0 -3.936077,1.788501 -2.96875,4.59375 L 49.71875,95.9375 C 50.39977,95.96871 51.092519,96 51.78125,96 68.90248,96 83.743796,86.249748 91.0625,72 l -45.03125,0 z"
     id="path4951"
     style="fill:#0dab62;fill-opacity:1;stroke:none" />
  <path
     d="m 276.78205,71.057463 c -6.06628,0 -10.82714,-5.317588 -10.82714,-11.767803 0,-6.584584 4.76086,-11.959761 10.82714,-11.959761 5.95108,0 10.96152,5.375177 10.96152,11.959761 0,6.450215 -5.01044,11.767803 -10.96152,11.767803 z m 16.2791,-26.242362 c 0,-1.420579 -1.15183,-2.572408 -2.5532,-2.572408 -1.42059,0 -2.5724,1.151829 -2.5724,2.572408 0,0.0192 0,0.0192 0,0.03839 0,0 0,0 0,0 0,0 0,3.359468 0,3.359468 -2.26527,-3.263483 -6.39264,-5.951065 -11.1535,-5.951065 -9.25297,0 -16.14472,7.640399 -16.14472,16.970169 0,9.310567 6.89175,16.893418 16.14472,16.893418 4.76086,0 8.88823,-2.687595 11.1535,-6.008696 0,0 0,3.378691 0,3.378691 0,0 0,0 0,0 0,1.420579 1.15181,2.572401 2.5724,2.572401 1.40137,0 2.5532,-1.151822 2.5532,-2.572401 0,0 0,-28.641985 0,-28.641985 0,0 0,0 0,0 0,-0.0192 0,-0.0192 0,-0.03839 z m -82.24017,26.242362 c -6.08546,0 -10.84634,-5.317588 -10.84634,-11.767803 0,-6.584584 4.76088,-11.959761 10.84634,-11.959761 5.93189,0 10.94232,5.375177 10.94232,11.959761 0,6.450215 -5.01043,11.767803 -10.94232,11.767803 z m 13.70669,-28.81477 c -1.42058,0 -2.57241,1.151829 -2.57241,2.572408 0,0.0192 0.0192,0.0192 0.0192,0.03839 0,0 -0.0192,0 -0.0192,0 0,0 0,3.359468 0,3.359468 -2.24606,-3.263483 -6.37342,-5.951065 -11.13428,-5.951065 -9.27219,0 -16.14472,7.640399 -16.14472,16.970169 0,9.310567 6.87253,16.893418 16.14472,16.893418 4.76086,0 8.88822,-2.687595 11.13428,-6.008696 0,0 0,3.378691 0,3.378691 0,0 0,0 0,0 0,1.420579 1.15183,2.572401 2.57241,2.572401 1.42058,0 2.57241,-1.151822 2.57241,-2.572401 0,0 0,-28.641985 0,-28.641985 0,0 -0.0192,0 -0.0192,0 0,-0.0192 0.0192,-0.0192 0.0192,-0.03839 0,-1.420579 -1.15183,-2.572408 -2.57241,-2.572408 z m -69.0134,-8.523494 c -1.45898,0 -2.64919,1.190218 -2.64919,2.668395 0,1.458974 1.19021,2.649199 2.64919,2.649199 1.47817,0 2.66839,-1.190225 2.66839,-2.649199 0,-1.478177 -1.19022,-2.668395 -2.66839,-2.668395 z m 0,8.523494 c -1.45898,0 -2.64919,1.190225 -2.64919,2.668394 0,0.0192 0,0.0192 0,0.03838 0,0 0,0 0,0 0,0 0,28.430812 0,28.430812 0,0 0,0 0,0 0,0 0,0.0192 0,0.0192 0,1.458982 1.19021,2.649193 2.64919,2.649193 1.47817,0 2.66839,-1.190211 2.66839,-2.649193 0,0 0,-0.0192 0,-0.0192 0,0 0,0 0,0 0,0 0,-28.430812 0,-28.430812 0,0 -0.0191,0 -0.0191,0 0,-0.0192 0.0191,-0.0192 0.0191,-0.03838 0,-1.478169 -1.19022,-2.668394 -2.66839,-2.668394 z m 90.16856,13.533908 c -6.31584,-0.998247 -8.13956,-1.804522 -8.13956,-4.127363 0,-2.495623 3.07154,-4.511304 7.33327,-4.511304 3.93541,0 7.00693,1.76612 7.75562,5.202393 0,0 0.0192,0 0.0192,0 0.32634,1.09424 1.32459,1.900508 2.53399,1.900508 1.45897,0 2.6684,-1.190212 2.6684,-2.668387 0,-0.268757 -0.0576,-0.518318 -0.13438,-0.76788 -1.3054,-5.355982 -6.04706,-8.542667 -12.84284,-8.542667 -8.63867,0 -12.65085,4.933617 -12.65085,9.579302 0,6.066266 4.76087,7.94758 12.57407,9.080209 7.88998,1.055836 8.77305,2.745177 8.77305,5.010428 0,2.802776 -3.07153,5.240796 -8.08196,5.240796 -4.54969,0 -8.21633,-2.246056 -8.96503,-5.91269 -0.23036,-1.228614 -1.3054,-2.169264 -2.61079,-2.169264 -1.47817,0 -2.66839,1.190212 -2.66839,2.649193 0,0.191965 0.0192,0.364742 0.0576,0.537513 0,0 0,0 0,0 1.34378,6.123862 6.83414,9.8481 14.18662,9.8481 7.69802,0 13.20756,-4.069785 13.20756,-10.519995 0,-7.31408 -5.87429,-8.696271 -13.01559,-9.828892 z m -67.61202,-8.446702 c 4.18495,0 7.50604,2.188458 9.32975,5.682322 0.46074,0.767886 1.28623,1.286211 2.24607,1.286211 1.45898,0 2.6492,-1.171024 2.6492,-2.610797 0,-0.460735 -0.1344,-0.863872 -0.32636,-1.228614 0,-0.0192 0,-0.03839 0,-0.05758 -2.68758,-5.010422 -7.71722,-8.139524 -13.89866,-8.139524 -8.88824,0 -16.14473,7.6404 -16.14473,16.970169 0,9.310568 7.25649,16.835815 16.14473,16.835815 6.18144,0 11.24946,-3.148316 13.91785,-8.139551 0,-0.0192 0,-0.03839 0,-0.05758 0.19198,-0.364742 0.30717,-0.76788 0.30717,-1.190219 0,-1.458974 -1.19022,-2.629998 -2.6492,-2.629998 -0.94067,0 -1.74694,0.499123 -2.20766,1.228614 -0.0192,0 -0.0192,0 -0.0192,0 -1.74693,3.513058 -5.08721,5.701531 -9.34895,5.701531 -5.9319,0 -10.82714,-5.240797 -10.82714,-11.748602 0,-6.526993 4.89524,-11.90217 10.82714,-11.90217 z m -42.61746,5.759113 c 0,0 -12.95801,0 -12.95801,0 0,0 0,-16.144705 0,-16.144705 0,0 12.95801,0 12.95801,0 5.06802,0 8.69626,2.380436 8.69626,8.062773 0,5.701503 -3.62824,8.081932 -8.69626,8.081932 z m 0,-21.212724 c 0,0 -18.29481,0 -18.29481,0 0,0 0,41.504007 0,41.504007 0,0 0,0 0,0 0,0 0,0.0192 0,0.0192 0,1.458982 1.19021,2.649193 2.6684,2.649193 1.47818,0 2.6684,-1.190211 2.6684,-2.649193 0,0 -0.0191,-0.0192 -0.0191,-0.0192 0,0 0.0191,0 0.0191,0 0,0 0,-15.223264 0,-15.223264 0,0 12.95801,0 12.95801,0 8.94582,0 13.95626,-5.509552 13.95626,-13.149951 0,-7.698031 -5.01044,-13.130792 -13.95626,-13.130792 z"
     id="path1209"
     style="fill:#4b5d5f;fill-opacity:1" />
  <path
     d="m 69.026207,63.765448 c -0.827293,2.444997 0.432592,4.301662 3.399889,4.28448 l 20.456667,-0.105213 c 0.247838,-0.635089 0.499511,-1.281263 0.720257,-1.93366 5.487543,-16.217996 1.008474,-33.401418 -10.1438,-44.901224 L 69.026207,63.765448 z"
     id="use4962"
     style="fill:#ffd34e;fill-opacity:1;stroke:none" />
  <path
     d="M 30.847461,52.517753 C 30.059944,50.059656 27.943335,49.315022 25.566972,51.092111 L 9.1763626,63.332791 c 0.1780581,0.658071 0.3596185,1.327336 0.5697511,1.983228 C 14.96982,81.620908 28.783282,92.779777 44.586547,95.401911 L 30.847461,52.517753 z"
     id="use4964"
     style="fill:#448afd;fill-opacity:1;stroke:none" />
  <path
     d="m 44.319667,32.279182 c 2.065856,-1.547469 2.07802,-3.791209 -0.377999,-5.456476 L 27.017261,15.331371 c -0.56377,0.383308 -1.136976,0.773584 -1.688207,1.186494 C 11.625952,26.782441 5.5930989,43.483841 8.2785759,59.276464 L 44.319667,32.279182 z"
     id="use4966"
     style="fill:#9b479f;fill-opacity:1;stroke:none" />
  <path
     d="m 68.282309,38.933303 c 2.088913,1.5162 4.23601,0.86467 5.10099,-1.973808 L 79.359151,17.394846 C 78.826341,16.96955 78.284086,16.537301 77.726703,16.132734 63.870657,6.0755716 46.132339,5.2484353 31.838955,12.481547 l 36.443354,26.451756 z"
     id="use4968"
     style="fill:#e04a3f;fill-opacity:1;stroke:none" />
</svg>
