<?xml version="1.0" encoding="utf-8"?>
<!-- Generator: Adobe Illustrator 19.1.0, SVG Export Plug-In . SVG Version: 6.00 Build 0)  -->
<svg version="1.1" id="Layer_1" xmlns="http://www.w3.org/2000/svg" xmlns:xlink="http://www.w3.org/1999/xlink" x="0px" y="0px"
	 viewBox="196.3 286.5 219.7 219.7" style="enable-background:new 196.3 286.5 219.7 219.7;" xml:space="preserve">
<style type="text/css">
	.st0{fill:#737374;}
	.st1{fill:none;stroke:#FFFFFF;stroke-width:8;stroke-linecap:round;stroke-linejoin:round;stroke-miterlimit:10;}
</style>
<g>
	<path class="st0" d="M416,396.3c0,60.7-49.2,109.9-109.9,109.9c-28.3,0-54.1-10.7-73.5-28.2c-22.3-20.1-36.3-49.2-36.3-81.6
		c0-60.7,49.2-109.9,109.9-109.9S416,335.6,416,396.3z"/>
	<g>
		<line class="st1" x1="310" y1="328.9" x2="310" y2="357.7"/>
		<polyline class="st1" points="310,357.7 375.3,357.7 375.3,434.9 244.7,434.9 244.7,357.7 288.4,357.7 		"/>
		<line class="st1" x1="288.4" y1="415.4" x2="331.6" y2="415.4"/>
		<polygon class="st1" points="351.8,415.4 351.8,415.4 351.8,415.4 		"/>
		<polygon class="st1" points="351.8,396.3 351.8,396.3 351.8,396.3 		"/>
		<polygon class="st1" points="351.8,377.2 351.8,377.2 351.8,377.2 		"/>
		<polygon class="st1" points="330.9,396.3 330.9,396.3 330.9,396.3 		"/>
		<polygon class="st1" points="310,396.3 310,396.3 310,396.3 		"/>
		<polygon class="st1" points="289.1,396.3 289.1,396.3 289.1,396.3 		"/>
		<polygon class="st1" points="268.2,396.3 268.2,396.3 268.2,396.3 		"/>
		<polygon class="st1" points="330.9,377.2 330.9,377.2 330.9,377.2 		"/>
		<polygon class="st1" points="310,377.2 310,377.2 310,377.2 		"/>
		<polygon class="st1" points="289.1,377.2 289.1,377.2 289.1,377.2 		"/>
		<polygon class="st1" points="268.2,377.2 268.2,377.2 268.2,377.2 		"/>
		<polygon class="st1" points="268.2,415.4 268.2,415.4 268.2,415.4 		"/>
	</g>
</g>
</svg>
