<?xml version="1.0" encoding="utf-8"?>
<!-- Generator: Adobe Illustrator 19.1.0, SVG Export Plug-In . SVG Version: 6.00 Build 0)  -->
<svg version="1.1" id="Layer_1" xmlns="http://www.w3.org/2000/svg" xmlns:xlink="http://www.w3.org/1999/xlink" x="0px" y="0px"
	 viewBox="196.1 286.4 219.8 219.8" style="enable-background:new 196.1 286.4 219.8 219.8;" xml:space="preserve">
<style type="text/css">
	.st0{fill:#4DAFD1;}
	.st1{fill:none;stroke:#FFFFFF;stroke-width:7;stroke-miterlimit:10;}
	.st2{fill:#FFFFFF;}
	.st3{fill:none;stroke:#FFFFFF;stroke-width:7;stroke-linecap:round;stroke-miterlimit:10;}
</style>
<g>
	<circle class="st0" cx="306" cy="396.3" r="109.9"/>
	<g>
		<path class="st1" d="M254.7,417.3c-1.2,0-2.2-1.7-2.2-3.8v-37.4c0-2.1,1-3.8,2.2-3.8c0,0,25.4,0,32.5,0c2.5,0,14-19.9,14-16.9
			c0,23.4-0.2,68.5,0,80.8c0.1,3.6-11-19-14-19C280.2,417.3,254.7,417.3,254.7,417.3"/>
		<g>
			<path class="st2" d="M320.2,422c-1.9,0-3.5-1.6-3.5-3.5s1.6-3.5,3.5-3.5c10.5,0,19-8.5,19-19s-8.5-19-19-19
				c-1.9,0-3.5-1.6-3.5-3.5s1.6-3.5,3.5-3.5c14.4,0,26,11.7,26,26C346.3,410.3,334.6,422,320.2,422z"/>
		</g>
		<path class="st3" d="M334.1,351c18.5,6.5,31.8,24.2,31.8,45c0,21.5-14.2,39.6-33.7,45.6"/>
	</g>
</g>
</svg>
